<svg width="1313" height="353" viewBox="0 0 1313 353" fill="none" xmlns="http://www.w3.org/2000/svg">
<g clip-path="url(#clip0_23940_85717)">
<path d="M416.99 255.94H382.553L435.025 103.94H476.439L528.838 255.94H494.4L456.326 138.675H455.139L416.99 255.94ZM414.838 196.194H496.182V221.28H414.838V196.194ZM547.133 255.94V103.94H607.102C618.581 103.94 628.378 105.994 636.492 110.101C644.656 114.158 650.866 119.922 655.121 127.394C659.426 134.815 661.578 143.548 661.578 153.593C661.578 163.687 659.401 172.37 655.047 179.644C650.693 186.868 644.384 192.409 636.121 196.269C627.908 200.128 617.962 202.058 606.285 202.058H566.133V176.229H601.09C607.225 176.229 612.322 175.388 616.379 173.706C620.436 172.024 623.454 169.5 625.434 166.136C627.462 162.771 628.477 158.59 628.477 153.593C628.477 148.546 627.462 144.291 625.434 140.827C623.454 137.364 620.411 134.741 616.305 132.96C612.247 131.129 607.126 130.214 600.941 130.214H579.27V255.94H547.133ZM629.219 186.769L666.996 255.94H631.52L594.559 186.769H629.219ZM678.5 130.437V103.94H803.336V130.437H756.801V255.94H725.035V130.437H678.5ZM823.895 255.94V103.94H926.316V130.437H856.031V166.655H921.047V193.151H856.031V229.444H926.613V255.94H823.895ZM951.866 103.94H991.499L1033.36 206.065H1035.14L1077 103.94H1116.63V255.94H1085.46V157.007H1084.2L1044.86 255.198H1023.64L984.3 156.636H983.038V255.94H951.866V103.94ZM1175.25 103.94V255.94H1143.11V103.94H1175.25ZM1284.14 147.655C1283.55 141.668 1281 137.017 1276.5 133.702C1272 130.387 1265.89 128.729 1258.17 128.729C1252.92 128.729 1248.49 129.472 1244.88 130.956C1241.27 132.391 1238.5 134.395 1236.57 136.968C1234.69 139.541 1233.75 142.46 1233.75 145.726C1233.65 148.447 1234.22 150.822 1235.46 152.851C1236.74 154.879 1238.5 156.636 1240.73 158.12C1242.95 159.555 1245.53 160.817 1248.44 161.905C1251.36 162.944 1254.48 163.835 1257.8 164.577L1271.45 167.843C1278.08 169.327 1284.17 171.306 1289.71 173.78C1295.25 176.254 1300.05 179.297 1304.11 182.909C1308.17 186.521 1311.31 190.776 1313.53 195.675C1315.81 200.573 1316.97 206.189 1317.02 212.522C1316.97 221.825 1314.6 229.89 1309.9 236.718C1305.25 243.496 1298.52 248.766 1289.71 252.526C1280.95 256.237 1270.39 258.093 1258.02 258.093C1245.75 258.093 1235.06 256.213 1225.96 252.452C1216.9 248.692 1209.83 243.125 1204.73 235.753C1199.68 228.331 1197.04 219.153 1196.79 208.218H1227.89C1228.23 213.314 1229.69 217.569 1232.26 220.983C1234.89 224.348 1238.38 226.896 1242.73 228.628C1247.13 230.31 1252.11 231.151 1257.65 231.151C1263.09 231.151 1267.82 230.36 1271.82 228.776C1275.88 227.193 1279.02 224.991 1281.25 222.171C1283.48 219.351 1284.59 216.11 1284.59 212.448C1284.59 209.034 1283.57 206.164 1281.55 203.839C1279.57 201.513 1276.65 199.534 1272.79 197.901C1268.98 196.269 1264.3 194.784 1258.76 193.448L1242.21 189.292C1229.39 186.175 1219.28 181.301 1211.85 174.671C1204.43 168.041 1200.75 159.11 1200.8 147.878C1200.75 138.675 1203.2 130.634 1208.14 123.757C1213.14 116.879 1219.99 111.511 1228.7 107.651C1237.41 103.792 1247.31 101.862 1258.39 101.862C1269.67 101.862 1279.52 103.792 1287.93 107.651C1296.39 111.511 1302.97 116.879 1307.67 123.757C1312.37 130.634 1314.8 138.601 1314.94 147.655H1284.14Z" fill="white"/>
<path opacity="0.1" d="M165.471 21.4302C132.738 21.4302 100.74 31.1365 73.5239 49.3219C46.3075 67.5073 25.095 93.3549 12.5687 123.596C0.0423708 153.837 -3.23503 187.114 3.15083 219.218C9.53668 251.321 25.2991 280.811 48.4447 303.956C71.5902 327.102 101.079 342.864 133.183 349.25C165.287 355.636 198.564 352.359 228.805 339.832C259.046 327.306 284.894 306.093 303.079 278.877C321.264 251.661 330.971 219.663 330.971 186.93C330.971 143.037 313.534 100.941 282.497 69.904C251.46 38.8667 209.364 21.4302 165.471 21.4302ZM191.551 245.43L184.781 223.02H146.171L139.401 245.43H105.101L143.751 128.34H187.201L225.851 245.43H191.551Z" fill="white"/>
<path opacity="0.1" d="M165.041 160.59L153.381 199.24H177.631L165.961 160.59H165.041Z" fill="white"/>
<path d="M165.041 160.59L153.381 199.24H177.631L165.961 160.59H165.041Z" fill="white"/>
<path d="M165.471 66.9302C141.737 66.9302 118.536 73.968 98.8023 87.1538C79.0684 100.34 63.6877 119.081 54.6052 141.008C45.5226 162.935 43.1463 187.063 47.7765 210.341C52.4068 233.619 63.8357 255.001 80.618 271.783C97.4003 288.565 118.782 299.994 142.06 304.624C165.338 309.255 189.466 306.878 211.393 297.796C233.32 288.713 252.061 273.332 265.247 253.599C278.433 233.865 285.471 210.664 285.471 186.93C285.471 155.104 272.828 124.582 250.324 102.077C227.819 79.573 197.297 66.9302 165.471 66.9302ZM191.551 245.43L184.781 223.02H146.171L139.401 245.43H105.101L143.751 128.34H187.201L225.851 245.43H191.551Z" fill="white"/>
<path d="M144.07 21.4302C144.07 17.1881 145.329 13.0413 147.686 9.51465C150.044 5.988 153.395 3.23997 157.315 1.61841C161.235 -0.00315237 165.548 -0.425363 169.708 0.405152C173.868 1.23567 177.688 3.28162 180.685 6.28406C183.682 9.2865 185.72 13.1104 186.543 17.272C187.366 21.4336 186.936 25.7458 185.307 29.6627C183.678 33.5797 180.924 36.9253 177.393 39.2764C173.862 41.6274 169.712 42.8782 165.47 42.8702C159.791 42.8596 154.348 40.5961 150.336 36.5765C146.324 32.5568 144.07 27.1096 144.07 21.4302Z" fill="white"/>
</g>
<defs>
<clipPath id="clip0_23940_85717">
<rect width="1312.21" height="352.43" fill="white"/>
</clipPath>
</defs>
</svg>
